<?xml version="1.0" encoding="UTF-8" standalone="no"?>
<!-- Generator: Adobe Illustrator 25.3.1, SVG Export Plug-In . SVG Version: 6.00 Build 0)  -->

<svg
   xmlns:dc="http://purl.org/dc/elements/1.1/"
   xmlns:cc="http://creativecommons.org/ns#"
   xmlns:rdf="http://www.w3.org/1999/02/22-rdf-syntax-ns#"
   xmlns:svg="http://www.w3.org/2000/svg"
   xmlns="http://www.w3.org/2000/svg"
   xmlns:sodipodi="http://sodipodi.sourceforge.net/DTD/sodipodi-0.dtd"
   xmlns:inkscape="http://www.inkscape.org/namespaces/inkscape"
   version="1.1"
   id="Layer_1"
   x="0px"
   y="0px"
   viewBox="0 0 1000 133.97928"
   xml:space="preserve"
   sodipodi:docname="premier-sports-1-tab-logo-1.svg"
   width="1000"
   height="133.97928"
   inkscape:version="0.92.4 (5da689c313, 2019-01-14)"><metadata
   id="metadata50"><rdf:RDF><cc:Work
       rdf:about=""><dc:format>image/svg+xml</dc:format><dc:type
         rdf:resource="http://purl.org/dc/dcmitype/StillImage" /><dc:title></dc:title></cc:Work></rdf:RDF></metadata><defs
   id="defs48" /><sodipodi:namedview
   pagecolor="#ffffff"
   bordercolor="#666666"
   borderopacity="1"
   objecttolerance="10"
   gridtolerance="10"
   guidetolerance="10"
   inkscape:pageopacity="0"
   inkscape:pageshadow="2"
   inkscape:window-width="1920"
   inkscape:window-height="1017"
   id="namedview46"
   showgrid="false"
   fit-margin-top="0"
   fit-margin-left="0"
   fit-margin-right="0"
   fit-margin-bottom="0"
   inkscape:zoom="1.1059138"
   inkscape:cx="527.61795"
   inkscape:cy="23.616915"
   inkscape:window-x="1912"
   inkscape:window-y="-8"
   inkscape:window-maximized="1"
   inkscape:current-layer="Layer_1" />
<style
   type="text/css"
   id="style2">
	.st0{fill:#0A0A0A;}
	.st1{fill:#FFFF00;}
	.st2{fill:#FFFFFF;}
</style>
<g
   id="Layer_2_1_"
   transform="matrix(3.3411294,0,0,3.3411294,0,0.33411294)">
	<g
   id="g42">
		<rect
   y="-0.1"
   class="st0"
   width="259.29999"
   height="40.099998"
   id="rect4"
   x="0"
   style="fill:#0a0a0a" />
		<g
   id="g34">
			<path
   class="st1"
   d="M 62.7,27.1 H 52 v -5.5 h 6.9 c 0.2,0 0.3,-0.1 0.3,-0.3 V 18 c 0,-0.2 -0.1,-0.3 -0.3,-0.3 H 52 v -4.9 h 10.7 c 0.2,0 0.3,-0.1 0.3,-0.3 V 9.2 C 63,9 62.9,8.9 62.7,8.9 H 47.9 c -0.2,0 -0.3,0.1 -0.3,0.3 v 21.4 c 0,0.2 0.1,0.3 0.3,0.3 h 14.8 c 0.2,0 0.3,-0.1 0.3,-0.3 v -3.2 c 0,-0.2 -0.1,-0.3 -0.3,-0.3"
   id="path6"
   inkscape:connector-curvature="0"
   style="fill:#ffff00" />
			<path
   class="st2"
   d="m 227.5,9 v 0 h -4.4 v 0 h -7 c -0.2,0 -0.4,0.2 -0.3,0.4 l 1.9,3.7 c 0.1,0.1 0.2,0.2 0.3,0.2 h 5 v 17.2 c 0,0.2 0.1,0.3 0.3,0.3 h 3.8 c 0.2,0 0.3,-0.1 0.3,-0.3 V 13.3 h 5 c 0.1,0 0.3,-0.1 0.3,-0.2 l 1.9,-3.7 c 0.1,-0.2 0,-0.4 -0.3,-0.4 0,0 -6.8,0 -6.8,0 z"
   id="path8"
   inkscape:connector-curvature="0"
   style="fill:#ffffff" />
			<path
   class="st1"
   d="m 69.6,19.5 6.4,6.2 c 0.1,0.1 0.3,0.1 0.4,0 l 6.4,-6.2 v 11.1 c 0,0.2 0.1,0.3 0.3,0.3 H 87 c 0.2,0 0.3,-0.1 0.3,-0.3 V 9.2 C 87.3,8.9 87,8.8 86.8,9 L 76.5,19.2 c -0.1,0.1 -0.3,0.1 -0.4,0 L 65.7,9 C 65.5,8.8 65.2,8.9 65.2,9.2 v 21.4 c 0,0.2 0.1,0.3 0.3,0.3 h 3.8 c 0.2,0 0.3,-0.1 0.3,-0.3 0,0 0,-11.1 0,-11.1 z"
   id="path10"
   inkscape:connector-curvature="0"
   style="fill:#ffff00" />
			<path
   class="st2"
   d="m 145.1,18.4 -2.5,-1.1 c -0.8,-0.4 -1.5,-0.7 -1.9,-1.1 -0.5,-0.3 -0.7,-0.8 -0.7,-1.5 0,-0.7 0.3,-1.3 0.8,-1.6 0.5,-0.3 1.2,-0.5 2,-0.5 0.9,0 1.7,0.2 2.4,0.7 0.6,0.4 1.2,0.9 1.7,1.6 0.1,0.1 0.3,0.2 0.4,0.1 l 2.6,-2 c 0.1,-0.1 0.2,-0.3 0.1,-0.4 -0.6,-1.1 -1.6,-2 -2.7,-2.7 -1.3,-0.8 -2.8,-1.2 -4.6,-1.2 -1,0 -2,0.1 -2.9,0.4 -0.9,0.3 -1.7,0.7 -2.3,1.2 -0.7,0.5 -1.2,1.2 -1.6,2 -0.4,0.8 -0.6,1.6 -0.6,2.6 0,0.8 0.1,1.5 0.4,2.1 0.3,0.6 0.6,1.2 1.1,1.7 0.5,0.5 1,1 1.7,1.4 0.7,0.4 1.4,0.8 2.2,1.1 l 2.4,1.1 c 0.9,0.4 1.6,0.8 2.1,1.1 0.5,0.4 0.7,0.9 0.7,1.6 0,0.8 -0.3,1.4 -0.8,1.8 -0.6,0.4 -1.3,0.6 -2.3,0.6 -0.7,0 -1.3,-0.1 -1.8,-0.3 -0.5,-0.2 -1,-0.4 -1.5,-0.7 -0.4,-0.3 -0.8,-0.6 -1.2,-1 -0.3,-0.3 -0.6,-0.6 -0.8,-0.9 -0.1,-0.1 -0.3,-0.2 -0.4,-0.1 l -2.7,2 c -0.1,0.1 -0.2,0.3 -0.1,0.4 0.8,1.4 1.9,2.5 3.3,3.3 1.5,0.9 3.2,1.3 5.2,1.3 1.1,0 2.1,-0.1 3.1,-0.4 0.9,-0.3 1.8,-0.7 2.5,-1.3 0.7,-0.6 1.3,-1.3 1.7,-2.1 0.4,-0.8 0.6,-1.7 0.6,-2.8 0,-1.6 -0.5,-2.8 -1.4,-3.8 -1.1,-0.9 -2.5,-1.8 -4.2,-2.6"
   id="path12"
   inkscape:connector-curvature="0"
   style="fill:#ffffff" />
			<path
   class="st2"
   d="m 244.4,18.4 -2.5,-1.1 c -0.8,-0.4 -1.5,-0.7 -1.9,-1.1 -0.5,-0.3 -0.7,-0.8 -0.7,-1.5 0,-0.7 0.3,-1.3 0.8,-1.6 0.5,-0.3 1.2,-0.5 2,-0.5 0.9,0 1.7,0.2 2.4,0.7 0.6,0.4 1.2,0.9 1.7,1.6 0.1,0.1 0.3,0.2 0.4,0.1 l 2.6,-2 c 0.1,-0.1 0.2,-0.3 0.1,-0.4 -0.6,-1.1 -1.6,-2 -2.7,-2.7 -1.3,-0.8 -2.8,-1.2 -4.6,-1.2 -1,0 -2,0.1 -2.9,0.4 -0.9,0.3 -1.7,0.7 -2.3,1.2 -0.7,0.5 -1.2,1.2 -1.6,2 -0.4,0.8 -0.6,1.6 -0.6,2.6 0,0.8 0.1,1.5 0.4,2.1 0.3,0.6 0.6,1.2 1.1,1.7 0.5,0.5 1,1 1.7,1.4 0.7,0.4 1.4,0.8 2.2,1.1 l 2.4,1.1 c 0.9,0.4 1.6,0.8 2.1,1.1 0.5,0.4 0.7,0.9 0.7,1.6 0,0.8 -0.3,1.4 -0.8,1.8 -0.6,0.4 -1.3,0.6 -2.3,0.6 -0.7,0 -1.3,-0.1 -1.8,-0.3 -0.5,-0.2 -1,-0.4 -1.5,-0.7 -0.4,-0.3 -0.8,-0.6 -1.2,-1 -0.3,-0.3 -0.6,-0.6 -0.8,-0.9 -0.1,-0.1 -0.3,-0.2 -0.4,-0.1 l -2.7,2 c -0.1,0.1 -0.2,0.3 -0.1,0.4 0.8,1.4 1.9,2.5 3.3,3.3 1.5,0.9 3.2,1.3 5.2,1.3 1.1,0 2.1,-0.1 3.1,-0.4 0.9,-0.3 1.8,-0.7 2.5,-1.3 0.7,-0.6 1.3,-1.3 1.7,-2.1 0.4,-0.8 0.6,-1.7 0.6,-2.8 0,-1.6 -0.5,-2.8 -1.4,-3.8 -1.1,-0.9 -2.5,-1.8 -4.2,-2.6"
   id="path14"
   inkscape:connector-curvature="0"
   style="fill:#ffffff" />
			<path
   class="st1"
   d="m 20,8.9 h -9.6 c -0.2,0 -0.3,0.1 -0.3,0.3 v 21.4 c 0,0.2 0.1,0.3 0.3,0.3 h 3.8 c 0.2,0 0.3,-0.1 0.3,-0.3 V 12.8 h 4.9 c 1.8,0 3.4,1.5 3.4,3.3 0,0.9 -0.4,1.7 -1,2.3 -0.6,0.6 -1.4,1 -2.3,1 h -3.9 c -0.2,0 -0.4,0.3 -0.3,0.5 l 2,3.2 c 0.1,0.1 0.2,0.1 0.3,0.1 H 20 c 0.8,0 1.5,-0.1 2.2,-0.3 v 0 c 2.9,-0.9 5,-3.6 5,-6.8 0,-2 -0.8,-3.7 -2.1,-5 C 23.7,9.7 22,8.9 20,8.9"
   id="path16"
   inkscape:connector-curvature="0"
   style="fill:#ffff00" />
			<path
   class="st1"
   d="m 45.9,16 c 0,-3.9 -3.3,-7.1 -7.3,-7.1 h -9.5 c -0.2,0 -0.3,0.1 -0.3,0.3 v 21.4 c 0,0.2 0.1,0.3 0.3,0.3 h 3.8 c 0.2,0 0.3,-0.1 0.3,-0.3 V 12.8 h 4.9 c 1.8,0 3.3,1.4 3.4,3.2 0,1.8 -1.5,3.3 -3.3,3.3 h -3.9 c -0.2,0 -0.4,0.3 -0.3,0.5 l 6.8,10.9 c 0.1,0.1 0.2,0.1 0.3,0.1 h 4.2 c 0.2,0 0.4,-0.3 0.3,-0.5 l -4.7,-7.5 c 2.9,-0.8 5,-3.6 5,-6.8"
   id="path18"
   inkscape:connector-curvature="0"
   style="fill:#ffff00" />
			<path
   class="st1"
   d="m 130.9,16 c 0,-3.9 -3.3,-7.1 -7.3,-7.1 h -9.5 c -0.2,0 -0.3,0.1 -0.3,0.3 v 21.4 c 0,0.2 0.1,0.3 0.3,0.3 h 3.8 c 0.2,0 0.3,-0.1 0.3,-0.3 V 12.8 h 4.9 c 1.8,0 3.3,1.4 3.4,3.2 0,1.8 -1.5,3.3 -3.3,3.3 h -3.9 c -0.2,0 -0.4,0.3 -0.3,0.5 l 6.8,10.9 c 0.1,0.1 0.2,0.1 0.3,0.1 h 4.2 c 0.2,0 0.4,-0.3 0.3,-0.5 l -4.7,-7.5 c 2.9,-0.8 5,-3.6 5,-6.8"
   id="path20"
   inkscape:connector-curvature="0"
   style="fill:#ffff00" />
			<path
   class="st1"
   d="m 111.2,27.1 h -10.7 v -5.5 h 6.9 c 0.2,0 0.3,-0.1 0.3,-0.3 V 18 c 0,-0.2 -0.1,-0.3 -0.3,-0.3 h -6.9 v -4.9 h 10.7 c 0.2,0 0.3,-0.1 0.3,-0.3 V 9.2 c 0,-0.2 -0.1,-0.3 -0.3,-0.3 H 96.4 c -0.2,0 -0.3,0.1 -0.3,0.3 v 21.4 c 0,0.2 0.1,0.3 0.3,0.3 h 14.8 c 0.2,0 0.3,-0.1 0.3,-0.3 v -3.2 c 0,-0.2 -0.1,-0.3 -0.3,-0.3"
   id="path22"
   inkscape:connector-curvature="0"
   style="fill:#ffff00" />
			<path
   class="st1"
   d="m 93.6,8.9 h -3.8 c -0.2,0 -0.3,0.1 -0.3,0.3 v 21.4 c 0,0.2 0.1,0.3 0.3,0.3 h 3.8 c 0.2,0 0.3,-0.1 0.3,-0.3 V 9.2 c 0,-0.1 -0.1,-0.3 -0.3,-0.3"
   id="path24"
   inkscape:connector-curvature="0"
   style="fill:#ffff00" />
			<path
   class="st2"
   d="m 162.7,8.9 h -9.6 c -0.2,0 -0.3,0.1 -0.3,0.3 v 21.4 c 0,0.2 0.1,0.3 0.3,0.3 h 3.8 c 0.2,0 0.3,-0.1 0.3,-0.3 V 12.8 h 4.9 c 1.8,0 3.4,1.5 3.4,3.3 0,0.9 -0.4,1.7 -1,2.3 -0.6,0.6 -1.4,1 -2.3,1 h -3.9 c -0.2,0 -0.4,0.3 -0.3,0.5 l 2,3.2 c 0.1,0.1 0.2,0.1 0.3,0.1 h 2.4 c 0.8,0 1.5,-0.1 2.2,-0.3 2.9,-0.9 5,-3.6 5,-6.8 0,-2 -0.8,-3.7 -2.1,-5 -1.3,-1.4 -3.1,-2.2 -5.1,-2.2"
   id="path26"
   inkscape:connector-curvature="0"
   style="fill:#ffffff" />
			<path
   class="st2"
   d="m 216.3,16 c 0,-3.9 -3.3,-7.1 -7.3,-7.1 h -9.5 c -0.2,0 -0.3,0.1 -0.3,0.3 v 21.4 c 0,0.2 0.1,0.3 0.3,0.3 h 3.8 c 0.2,0 0.3,-0.1 0.3,-0.3 V 12.8 h 4.9 c 1.8,0 3.3,1.4 3.4,3.2 0,1.8 -1.5,3.3 -3.3,3.3 h -3.9 c -0.2,0 -0.4,0.3 -0.3,0.5 l 6.8,10.9 c 0.1,0.1 0.2,0.1 0.3,0.1 h 4.2 c 0.2,0 0.4,-0.3 0.3,-0.5 l -4.7,-7.5 c 2.9,-0.8 5,-3.6 5,-6.8"
   id="path28"
   inkscape:connector-curvature="0"
   style="fill:#ffffff" />
			<path
   class="st1"
   d="m 171,19.9 c 0,6.8 5.2,12.4 11.8,13.1 0.2,0 0.3,-0.1 0.3,-0.3 V 29 c 0,-0.1 -0.1,-0.3 -0.3,-0.3 -4.2,-0.7 -7.5,-4.3 -7.5,-8.7 0,-4.4 3.2,-8 7.5,-8.7 0.1,0 0.3,-0.2 0.3,-0.3 V 7.1 c 0,-0.2 -0.2,-0.3 -0.3,-0.3 -6.7,0.7 -11.8,6.3 -11.8,13.1"
   id="path30"
   inkscape:connector-curvature="0"
   style="fill:#ffff00" />
			<path
   class="st1"
   d="m 185.3,7.1 v 3.8 c 0,0.2 0.1,0.3 0.3,0.3 4.2,0.7 7.5,4.3 7.5,8.7 0,4.4 -3.2,8 -7.5,8.7 -0.1,0 -0.3,0.2 -0.3,0.3 v 3.8 c 0,0.2 0.2,0.3 0.3,0.3 6.6,-0.7 11.8,-6.3 11.8,-13.1 0,-6.8 -5.2,-12.4 -11.8,-13.1 -0.1,0 -0.3,0.1 -0.3,0.3"
   id="path32"
   inkscape:connector-curvature="0"
   style="fill:#ffff00" />
		</g>
		<rect
   x="259.29999"
   y="-0.1"
   class="st1"
   width="40"
   height="40.099998"
   id="rect36"
   style="fill:#ffff00" />
		<g
   id="g40">
			<path
   class="st0"
   d="m 271.4,13.5 2.9,-4.7 c 0,-0.1 0.1,-0.1 0.2,-0.1 h 7.6 c 0.1,0 0.3,0.1 0.3,0.3 v 22.4 c 0,0.1 -0.1,0.3 -0.3,0.3 h -4.7 c -0.1,0 -0.3,-0.1 -0.3,-0.3 V 13.8 h -5.6 c -0.1,0 -0.2,-0.2 -0.1,-0.3 z"
   id="path38"
   inkscape:connector-curvature="0"
   style="fill:#0a0a0a" />
		</g>
	</g>
</g>
</svg>