<svg id="svg1628510" xmlns="http://www.w3.org/2000/svg" xmlns:xlink="http://www.w3.org/1999/xlink" viewBox="0 0 2123.21643 249.99998"><defs><linearGradient id="Безымянный_градиент" x1="182.95828" y1="790.23064" x2="182.95828" y2="1011.49335" gradientTransform="translate(0 -776)" gradientUnits="userSpaceOnUse"><stop offset="0" stop-color="#002a91"/><stop offset="0.8" stop-color="#002672"/></linearGradient><linearGradient id="Безымянный_градиент_6" x1="184.72337" y1="907.48161" x2="181.79802" y2="823.71666" gradientTransform="translate(0 -776)" gradientUnits="userSpaceOnUse"><stop offset="0" stop-color="#fff"/><stop offset="0.1203" stop-color="#fff" stop-opacity="0.8347"/><stop offset="0.2693" stop-color="#fff" stop-opacity="0.6576"/><stop offset="0.4195" stop-color="#fff" stop-opacity="0.5107"/><stop offset="0.5684" stop-color="#fff" stop-opacity="0.3965"/><stop offset="0.7156" stop-color="#fff" stop-opacity="0.3152"/><stop offset="0.8603" stop-color="#fff" stop-opacity="0.2664"/><stop offset="1" stop-color="#fff" stop-opacity="0.25"/></linearGradient><linearGradient id="Безымянный_градиент_3" x1="1924.00949" y1="627.85267" x2="1924.00949" y2="618.23728" gradientTransform="matrix(79.7983, 0, 0, -26, -152747.50632, 16324)" gradientUnits="userSpaceOnUse"><stop offset="0.4" stop-color="red"/><stop offset="1" stop-color="#d42321"/></linearGradient><linearGradient id="Безымянный_градиент_6-2" x1="786.49581" y1="890.81041" x2="782.14645" y2="766.25865" xlink:href="#Безымянный_градиент_6"/></defs><title>Sky_Sports_Box_Office_2020</title><path id="Path" d="M2108.318,249.83063H1074.83181a16.69067,16.69067,0,0,1-16.6321-16.63207V16.73184A16.69068,16.69068,0,0,1,1074.83181.09976H2108.51773a16.69065,16.69065,0,0,1,16.632,16.63208V233.14859A16.87273,16.87273,0,0,1,2108.318,249.83063Z" transform="translate(-1.98328 0.16936)" style="fill:#fff"/><path id="Path-2" data-name="Path" d="M2108.51773,5.09438a11.68135,11.68135,0,0,1,11.63736,11.63746V233.09866a11.89569,11.89569,0,0,1-11.83734,11.6874H1074.83181a11.68138,11.68138,0,0,1-11.63749-11.63745V16.73184a11.68138,11.68138,0,0,1,11.63749-11.63746H2108.51773m0-4.99462H1074.83181a16.69068,16.69068,0,0,0-16.6321,16.63208V233.14859a16.69067,16.69067,0,0,0,16.6321,16.63207H2108.318a16.90671,16.90671,0,0,0,16.88171-16.63207V16.73184a16.76586,16.76586,0,0,0-16.682-16.63208Z" transform="translate(-1.98328 0.16936)" style="fill:#002a91"/><path d="M1301.30005,89.82793a44.10741,44.10741,0,0,0-14.6-9.6,46.14692,46.14692,0,0,0-17.2-3.3c-8.19995,0-15.4,1.6-21.19995,4.9a50.81494,50.81494,0,0,0-10,7.2v-47.8l-1.19995-.5a11.5567,11.5567,0,0,0-3.1-.7,22.95344,22.95344,0,0,0-3.7-.2c-3.19995,0-5.4.7-6.69995,2.1a7.16981,7.16981,0,0,0-2.1,5.2v91.5c0,7.4-.1,14.2-.30005,20.5-.19995,6.2-.4,11.5-.69995,15.7l-.1,1.4,1.30005.5a21.6276,21.6276,0,0,0,6.19995.9c3.6,0,6-.9,7.19995-2.8a14.27045,14.27045,0,0,0,2.1-6.4c.1-1.2.2-2.3.2-3.5a37.70706,37.70706,0,0,0,10.9,8.9,41.24426,41.24426,0,0,0,20.6,5.2,44.86531,44.86531,0,0,0,19.1-4,48.96346,48.96346,0,0,0,14.6-10.9,49.69861,49.69861,0,0,0,9.4-16.4,64.70368,64.70368,0,0,0,3.3-20.5,57.85818,57.85818,0,0,0-3.8-21.4,47.60741,47.60741,0,0,0-10.20019-16m-3.5,37.5a44.70432,44.70432,0,0,1-2.5,15.8,31.68734,31.68734,0,0,1-6.69995,11.3,27.512,27.512,0,0,1-9.7,6.8,28.54439,28.54439,0,0,1-11.8,2.3,31.56347,31.56347,0,0,1-11.4-2.1,29.12037,29.12037,0,0,1-9.1-5.9,29.53535,29.53535,0,0,1-6.2-9,26.074,26.074,0,0,1-2.19995-11v-26.6a29.68047,29.68047,0,0,1,11.19995-12.1,33.82247,33.82247,0,0,1,29.4-2.4,27.89382,27.89382,0,0,1,9.80005,6.8,33.54585,33.54585,0,0,1,6.69995,11,40.96115,40.96115,0,0,1,2.49988,15.1" transform="translate(-1.98328 0.16936)" style="fill:#002a91"/><path d="M1328.30005,127.62793c0-28.5,21.1-49.9,49.5-49.9,28.5,0,49.69995,21.3,49.69995,49.9,0,28.5-21.1,50.3-49.69995,50.3-28.4,0-49.5-21.7-49.5-50.3m82.5,0c0-22-14.9-35.4-33-35.4-17.9,0-32.80005,13.5-32.80005,35.4,0,22,14.9,35.6,32.80005,35.6,18.1,0,33-13.7,33-35.6" transform="translate(-1.98328 0.16936)" style="fill:#002a91"/><path d="M1485.2,126.62793l33.19995-45.8-2.3-.8a27.45833,27.45833,0,0,0-4.1-1.1c-6.7-1.2-11.30005.2-13.6,3.9l-22.4,30.8-21.9-30.9c-1.80005-2.8-5-4.2-9.5-4.2a18.35279,18.35279,0,0,0-4.7.6,27.68638,27.68638,0,0,0-4.1,1.2l-2.19995.8,32.6,46.2-35,48.2,2.30005.8c1.19995.5,2.5.8,3.80005,1.2a22.17084,22.17084,0,0,0,4.4.6c4.5,0,7.69995-1.4,9.5-4.2l23.6-35,24.19995,35c1.80005,2.8,5.1,4.2,9.6,4.2a18.35235,18.35235,0,0,0,4.69995-.6,33.09953,33.09953,0,0,0,4.2-1.2l2.3-.8" transform="translate(-1.98328 0.16936)" style="fill:#002a91"/><path d="M1568.9,127.62793c0-28.5,21.1-49.9,49.5-49.9,28.5,0,49.7,21.3,49.7,49.9,0,28.5-21.1,50.3-49.7,50.3-28.4,0-49.5-21.7-49.5-50.3m82.5,0c0-22-14.9-35.4-33-35.4-17.9,0-32.8,13.5-32.8,35.4,0,22,14.9,35.6,32.8,35.6,18.1,0,33-13.7,33-35.6" transform="translate(-1.98328 0.16936)" style="fill:#002a91"/><path d="M1752.2,52.82793c0,6.4-2.6,9-5.80005,9-3,0-9.9-3-18.9-3-10,0-16.1,4.9-16.1,17.1v9.6H1744.2c.30005,2.3.5,4.5.6,6.8,0,5.8-2.4,7.8-6,7.8h-27.4v70c0,4-2,6.3-8.9,6.3a40.2603,40.2603,0,0,1-7.7-.8v-75.4h-14.4a30.74241,30.74241,0,0,1-.6-6.8c0-5.8,2.4-7.8,6-7.8h9v-8.6c0-22.5,13.5-33,31.80005-33,8.5,0,19.69995,2.2,25.19995,4.6a14.28474,14.28474,0,0,1,.4,4.2" transform="translate(-1.98328 0.16936)" style="fill:#002a91"/><path d="M1830.1,52.82793c0,6.4-2.6,9-5.80005,9-3,0-9.9-3-18.9-3-10,0-16.1,4.9-16.1,17.1v9.6H1822.1c.3,2.3.5,4.5.6,6.8,0,5.8-2.4,7.8-6,7.8h-27.4v70c0,4-2,6.3-8.9,6.3a40.26047,40.26047,0,0,1-7.69995-.8v-75.4h-14.5a30.74241,30.74241,0,0,1-.6-6.8c0-5.8,2.4-7.8,6-7.8h9v-8.6c0-22.5,13.5-33,31.8-33,8.5,0,19.7,2.2,25.2,4.6a11.55738,11.55738,0,0,1,.5,4.2" transform="translate(-1.98328 0.16936)" style="fill:#002a91"/><path d="M1843.9,53.42793a10.351,10.351,0,0,1,10.30066-10.401h0q.09962-.00048.19934.001h.2a10.20116,10.20116,0,0,1,10.39856,9.9999v0l.00146.10008v.4a10.52227,10.52227,0,0,1-10.4,10.4,10.87337,10.87337,0,0,1-10.7-10.5m2.2,122.4v-90.5c0-3.8,2.19995-6.3,8.9-6.3a40.2595,40.2595,0,0,1,7.69995.8v90.6c0,4-2.19995,6.3-8.9,6.3a39.51212,39.51212,0,0,1-7.69995-.9" transform="translate(-1.98328 0.16936)" style="fill:#002a91"/><path d="M1884.30005,127.82793c0-28.6,21.4-49.9,49.19995-49.9a72.46652,72.46652,0,0,1,31.30005,7.2c1,9-2.19995,12.3-6.4,12.3-5,0-11.5-5-24.8-5-17.4,0-32.4,13.5-32.4,35.5s15.1,35.6,32.4,35.6c13.3,0,19.69995-5,24.8-5,4.2,0,7.5,3.2,6.4,12.3a72.1038,72.1038,0,0,1-31.30005,7.5c-27.9-.2-49.19995-22-49.19995-50.5" transform="translate(-1.98328 0.16936)" style="fill:#002a91"/><path d="M2069.5,134.42792h-74.69995c2.6,18.3,15.30005,29,34.5,29,8.1,0,14.5-2,20.69995-4,4-1.4,6.3-2.1,7.8-2.1,4.30005,0,7.2,4,6.30005,12.7-8.5,3.8-21.7,8.1-35.6,8.1-29.8,0-50.6-20.7-50.6-50.8,0-28.6,20.7-49.5,48-49.5,29.80005,0,44.5,23.4,44.5,46.6a86.39972,86.39972,0,0,1-.90015,10m-74.80005-13.5h59.19995c-.6001-16.3-11.1-29-28.19995-29-15.29993,0-28.5,10-31,29" transform="translate(-1.98328 0.16936)" style="fill:#002a91"/><g id="Sky_Sports_Main_Event_PRIMARY_RGB" data-name="Sky Sports Main Event PRIMARY RGB"><path id="Sky_Logo" data-name="Sky Logo" d="M251.83328,231.93065a41.43108,41.43108,0,0,0,16.6,3.55c13.05.3,20.2-4.7,25.45-16.4l70.05-156a38.17548,38.17548,0,0,0-14.5-3.35c-9.05-.2-21.15,1.65-28.8,20.05l-22.65,53.45-44.5-72.3a63.46646,63.46646,0,0,0-15-2.1c-15.75,0-24.5,5.75-33.6,15.65l-43.25,47.2,34.75,54.7c6.45,9.95,14.9,15.05,28.65,15.05a50.77881,50.77881,0,0,0,20-3.75l-41.9-63,29.7-31.45,48.7,76.35Zm-91.85-58.95c0,11.5-4.5,18.1-27,18.1a61.61448,61.61448,0,0,1-8.05-.55v-152.6c0-11.6,3.95-23.7,26.6-23.7a43.24739,43.24739,0,0,1,8.45.85Zm-46.45-23.05c0,21.5-14.05,37.1-42.55,40.2-20.65,2.2-50.55-.4-64.75-2a41.51341,41.51341,0,0,1-.85-7.5c0-18.7,10.1-23,19.6-23,9.9,0,25.45,1.75,37,1.75,12.75,0,16.6-4.3,16.6-8.45,0-5.35-5.1-7.6-15-9.5l-27.1-5.2c-22.5-4.3-34.5-19.9-34.5-36.4,0-20.05,14.2-36.8,42.15-39.9,21.15-2.3,46.9.3,61,2a34.50156,34.50156,0,0,1,.75,7.2c0,18.7-9.9,22.75-19.4,22.75-7.3,0-18.65-1.35-31.6-1.35-13.15,0-18.65,3.65-18.65,8.05,0,4.7,5.2,6.6,13.45,8.05l25.85,4.8C102.08327,116.28064,113.53328,131.43065,113.53328,149.93065Z" transform="translate(-1.98328 0.16936)" style="fill:url(#Безымянный_градиент)"/><path id="s25" d="M363.98328,63.08064l-25.65,57.1a11.90852,11.90852,0,0,1-10.7,6.7l-23.4.8a6.56275,6.56275,0,0,0-5.7,4.25v-.05l22.1-52.1c7.7-18.4,19.8-20.25,28.8-20.05A38.42352,38.42352,0,0,1,363.98328,63.08064Zm-67.2,68.3-43.3-70.45a63.46646,63.46646,0,0,0-15-2.1c-15.75,0-24.5,5.75-33.6,15.65l-43.25,47.2,3.45,5.45a11.59589,11.59589,0,0,0,10.25,5.15c2.05-.05,22.95-.8,24.65-.85a12.33452,12.33452,0,0,1,10.9,4.9h0l-7.75-11.65,29.7-31.45,19.95,31.25h0a12.60364,12.60364,0,0,0,10.2,4.75c1.05-.05,27.15-.95,28.35-1a6.60831,6.60831,0,0,1,5.45,3.15Zm-145.25-117.1c-22.65,0-26.6,12.1-26.6,23.7v104.5a8.89165,8.89165,0,0,1,8.65-8.85l17.55-.6a8.9197,8.9197,0,0,0,8.9-8.9h0v-109A37.72975,37.72975,0,0,0,151.53328,14.28064Zm-75.95,97.1-25.85-4.8c-8.25-1.45-13.45-3.35-13.45-8.05,0-4.4,5.5-8.05,18.65-8.05,12.95,0,24.3,1.35,31.6,1.35,9.5,0,19.4-4.05,19.4-22.75a34.85621,34.85621,0,0,0-.75-7.2c-14.1-1.75-39.85-4.3-61-2-28,3.1-42.2,19.9-42.2,39.9a34.36305,34.36305,0,0,0,13.65,27.25,52.2508,52.2508,0,0,0,20.75,7.4,174.72056,174.72056,0,0,0,28.9,1.5c3.05-.1,25.85-.9,30.85-1.1,11.55-.4,17.85,9.45,17.2,19.35a1.10066,1.10066,0,0,1,.05-.4v-.1q.15-1.95.15-3.9C113.53328,131.43065,102.08327,116.28064,75.58327,111.38064Z" transform="translate(-1.98328 0.16936)" style="opacity:0.25;isolation:isolate;fill:url(#Безымянный_градиент_6)"/><path id="Plinth" d="M1152.03333-.16936H418.13327a16.70866,16.70866,0,0,0-16.65,16.65v216.7a16.70866,16.70866,0,0,0,16.65,16.65h734.1a16.70866,16.70866,0,0,0,16.65-16.65v-216.7A17.01391,17.01391,0,0,0,1152.03333-.16936Z" transform="translate(-1.98328 0.16936)" style="fill:url(#Безымянный_градиент_3)"/><path id="p40" d="M413.48328,123.83064s.55-.05,1.6-.1c49.3-1.75,741.3-25.85,741.3-25.85a12.55806,12.55806,0,0,0,12.44995-12.65v-68.75a16.64427,16.64427,0,0,0-16.65-16.65h-734.05a16.6443,16.6443,0,0,0-16.65,16.65v120.35A12.7105,12.7105,0,0,1,413.48328,123.83064Z" transform="translate(-1.98328 0.16936)" style="opacity:0.4000000059604645;isolation:isolate;fill:url(#Безымянный_градиент_6-2)"/><path d="M449.36662,179.489c-1.45-10.2,1.65-15.6,7.7-15.6,5.6,0,19.4,6.05,38.55,6.05,20.2,0,27.7-7.1,27.7-16.45,0-6.65-2.9-12.5-21.05-17.5l-20.85-5.6c-23.1-6.05-32.1-17.7-32.1-31.9,0-17.7,13.95-33.35,45.6-33.35,14.15,0,31.9,3.1,42.7,7.3,1.9,10-1.25,15.4-7.3,15.4-5.4,0-17.7-5.2-35-5.2-18.75,0-25.6,6.45-25.6,14.8,0,5.85,2.7,11.25,19.4,16.05l21.25,5.85c23.75,6.65,33.35,17.7,33.35,33.35,0,18.35-14.15,34.8-48.55,34.8C479.76662,187.589,460.8166,183.839,449.36662,179.489Z" transform="translate(-1.98328 0.16936)" style="fill:#fff"/><path d="M685.4666,126.339c0,38.55-27.1,61.25-56.65,61.25a50.09661,50.09661,0,0,1-40.85-20.2v49.55c0,4.6-2.7,7.7-10.6,7.7a35.10725,35.10725,0,0,1-9.6-1.05V67.339a48.53586,48.53586,0,0,1,9.6-1.05c7.9,0,10.6,2.9,10.6,7.7v11.25c8.55-11.9,23.1-20.2,40.85-20.2C658.36662,65.039,685.4666,87.939,685.4666,126.339Zm-20.4,0c0-25.85-17.1-43.55-40.2-43.55-15.6,0-30.2,9.15-36.9,22.3v42.5c6.65,13.35,21.05,22.3,36.9,22.3C647.9666,169.889,665.06664,152.189,665.06664,126.339Z" transform="translate(-1.98328 0.16936)" style="fill:#fff"/><path d="M704.81664,126.339c0-35,25.85-61.05,60.4-61.05,34.8,0,60.6,26.05,60.6,61.05,0,34.8-25.85,61.25-60.6,61.25C730.66661,187.589,704.81664,161.139,704.81664,126.339Zm100.65,0c0-27.1-18.1-43.55-40.2-43.55-21.9,0-40,16.45-40,43.55,0,26.65,18.1,43.75,40,43.75C787.31664,169.889,805.4666,152.989,805.4666,126.339Z" transform="translate(-1.98328 0.16936)" style="fill:#fff"/><path d="M923.61662,76.089c0,8.1-3.35,9.8-11.9,9.8-16.9,0-31.25,7.9-40,26.25v66.45c0,5-2.7,7.7-10.85,7.7a37.8237,37.8237,0,0,1-9.4-1.05V67.339a50.644,50.644,0,0,1,9.4-1.05c8.1,0,10.85,2.9,10.85,7.7v16.45c11.45-17.5,28.95-26.25,50.85-23.35A57.90408,57.90408,0,0,1,923.61662,76.089Z" transform="translate(-1.98328 0.16936)" style="fill:#fff"/><path d="M1011.9666,179.489a78.37652,78.37652,0,0,1-33.95,8.1c-23.35,0-37.3-13.75-37.3-36.65V49.639c0-5.2,2.9-8.55,10.85-8.55a53.04017,53.04017,0,0,1,9.4,1.25v25.6h45.85a66.341,66.341,0,0,1,.85,8.1c0,7.1-2.9,9.6-7.3,9.6h-39.15v63.95c0,13.75,6.45,20.4,19.4,20.4,11.9,0,18.35-5.2,23.95-5.2C1010.11662,164.889,1013.2166,169.689,1011.9666,179.489Z" transform="translate(-1.98328 0.16936)" style="fill:#fff"/><path d="M1025.91661,179.489c-1.45-10.2,1.65-15.6,7.7-15.6,5.65,0,19.4,6.05,38.55,6.05,20.19995,0,27.69995-7.1,27.69995-16.45,0-6.65-2.9-12.5-21.05-17.5l-20.85-5.6c-23.1-6.05-32.1-17.7-32.1-31.9,0-17.7,13.95-33.35,45.65-33.35,14.15,0,31.85,3.1,42.69995,7.3,1.9,10-1.25,15.4-7.3,15.4-5.4,0-17.7-5.2-35-5.2-18.75,0-25.6,6.45-25.6,14.8,0,5.85,2.7,11.25,19.4,16.05l21.25,5.85c23.75,6.65,33.35,17.7,33.35,33.35,0,18.35-14.15,34.8-48.55005,34.8C1056.36656,187.589,1037.36662,183.839,1025.91661,179.489Z" transform="translate(-1.98328 0.16936)" style="fill:#fff"/></g></svg>